/* XPM */
static char *ca0e8f8cdb504314d1d661c89599f6fe2NoukE0reH2HkXEr[] = {
/* columns rows colors chars-per-pixel */
"64 64 12 1 ",
"  c #A22633",
". c #F77622",
"X c #E43B44",
"o c #FEAE34",
"O c #FEE761",
"+ c #5A6988",
"@ c #0099DB",
"# c #2ABFFF",
"$ c #5DC6F3",
"% c #D6DFE7",
"& c #D4F2FF",
"* c white",
/* pixels */
"$$$$$$$$$$$$$$$$$$$$$$$$$$$$$$$$$$$$$$$$$$$$$$$$$$$$$$$$$$$$$$$$",
"$$$$$$$$$$$$$$$$$$$$$$$$$$$$$$$$$$$$$$$$$$$$$$$$$$$$$$$$$$$$$$$$",
"$$$$$$$$$$$$$$$$$$$$$$$$$$$$$$$$$$$$$$$$$$$$$$$$$$$$$$$$$$$$$$$$",
"$$$$$$$$$$$$$$$$$$$$$$$$$$$$$$$$$$$$$$$$$$$$$$$$$$$$$$$$$$$$$$$$",
"$$$$$$$$$$$$$$$$$$$$$$$$$$$$$$$$$$$$$$$$$$$$$$$$$$$$$$$$$$$$$$$$",
"$$$$$$$$$$$$$$$$$$$$$$$$$$$$$$$$$$$$$$$$$$$$$$$$$$$$$$$$$$$$$$$$",
"$$$$$$$$$$$$$$$$$$$$$$$$$$$$$$$$$$$$$$$$$$$$$$$$$$$$$$$$$$$$$$$$",
"$$$$$$$$$$$$$$$$$$$$$$$$$$$$$$$$$$$$$$$@@@@@@@@@@@$$$$&$$$$$$$$$",
"$$$$$$$$$$$$$$$$$$$$$$$$$$$$$$$$$$$$$$@@@@@@@@@@@@@@$&&&$$$$$$$$",
"$$$$$$$$$$$$$$$$$$$$$$$$$$$$$$$$$$$$$$@@@@@@@@@@@@@@@@&@&$$$$$$$",
"$$$$$$$$$$$$$$$$$$$$$$$$$$$$$$$$$$$$@@@@@@@@@@@@@@@@@@@&&&$$$$$$",
"$$$$$$$$$$$$$$$$$$$$$$$$$$$$$$XXXX@@@@@@@@@@@@@@@@@######@@$$$$$",
"$$$$$$$$$$$$$$$$$$$$$$$$$$$$$$XXXX@@@@#*******############@@$$$$",
"$$$$$$$$$$$$$$$$$$$$$$$$$$$$$$XXXX@@@**********##########@@$$$$$",
"$$$$$$$$$$$$$$$$$$$$$$$$$$$$$$XXXX@**************#######$$$$$$$$",
"$$$$$$$$$$$$@@@@@@$$$$$$$ XXXXXXXXXXXX************$$$$$$$$$$$$$$",
"$$$$$$$@@@@@@@@@@&@@$&$$$ XXXXOOOOXXXX************$$$$$$$$$$$$$$",
"$$$$$$@@@@@@@@@@&&&@&&&@$  XXXOOOOXXXX*************$$$$$$$$$$$$$",
"$$$$$@@@@@@@@@@@@&@@@&@@@   XXOOOOXXXX****+*********$$$$$$$$$$$$",
"$$$$$$@@@@@@@@@@@@@@@@@@@@@@$XXXXXX*******++++******$$$$$$$$$$$$",
"$$$$$$$@@@########@@@@@@@@@@@XXXXX ********+*+******$$$$$$$$$$$$",
"$$$$$$$$@###########@@@@@@@@#XXXX  ********+++******$$$$$$$$$$$$",
"$$$$$$$$$$############@@@@@##      ********+++*****%$$$$$$$$$$$$",
"$$$$$$$$$$$$$$$$$#######@####**************+++*****%.......$$$$$",
"$$$$$$$$$$$$$$$$$$$##########********************%%%ooooo....$$$",
"$$$$$$$$$$$$$$$$$$$$$#######$*********************%%ooooooo..$$$",
"$$$$$$****$*$*$$$$$$$$$###$$$*********************%%oooooooo.$$$",
"$$$$$$*******$*$$$$$$$$$$$$$$*********************%%oooooo...$$$",
"$$$$**********$*$$$$$$$$$$$$$********************%%ooooooo...$$$",
"$$$$*********$***$$$$$$$$$$$$********************%%ooooooo..$$$$",
"$$$$$**************$$$$$$$$$$********************%%%oooo...$$$$$",
"$$$$*****************$$$$$$$$*******************%%%......$$$$$$$",
"$$$$******************$$$$$$$**********************@@@@@@$$$$$$$",
"$$$$***********************************************@@@@@@@$$$$$$",
"$$$$***********************************************@&@@@@@$$$$$$",
"$$$$***********************************************&&&@$@$$$$$$$",
"$$$$************************************************&$$$$$$$$$$$",
"$$$$************************************************$$$$$$$$$$$$",
"$$$$************************************************$$$$$$$$$$$$",
"$$$$***********************************************%$$$$$$$$$$$$",
"$$$$***********************************************%$$$$$$$$$$$$",
"$$$$**********************************************%%$$$$$$$$$$$$",
"$$$$$*********************************************%%$$$$$$$$$$$$",
"$$$$$$*******************************************%%%$$$$$$$$$$$$",
"$$$$$$******************************************%%%%$$$$$$$$$$$$",
"$$$$$$$****************************************%%%%%$$$$$$$$$$$$",
"$$$$$$$***************************************%%%%%%$$$$$$$$$$$$",
"$$$$$$$@************************************%%%%%%%%$$$$$$$$$$$$",
"$$$$$@@@@**********************************%%%%%%%%%$$$$$$$$$$$$",
"$$$$@@@@@*********************************%%%%%%%%%$$$$$$$$$$$$$",
"$$$$@@@@@@*******************************%%%%%%%%%@@@$$$$$$$$$$$",
"$$$@@@@@@@@@***************************%%%%%%%%%%&&@@@$$$$$$$$$$",
"$$$$@@@@@@@@@*************************%%%%%%%%%%@&&@@#$$$$$$$$$$",
"$$$$$$$$$$$@@@************************%%%%%%%%%###&&###$$$$$$$$$",
"$$$$$$$$$$$$$$$*******************%%%%%%%%%%%%########$$$$$$$$$$",
"$$$$$$$$$$$$$$$$$$*************%%%%%%%%%%%%%$$$$######$$$$$$$$$$",
"$$$$$$$$$$$$$$$$$$$$$$$$$$$$$$$$$$$$$$$$$$$$$$$$$$###$$$$$$$$$$$",
"$$$$$$$$$$$$$$$$$$$$$$$$$$$$$$$$$$$$$$$$$$$$$$$$$$$$$$$$$$$$$$$$",
"$$$$$$$$$$$$$$$$$$$$$$$$$$$$$$$$$$$$$$$$$$$$$$$$$$$$$$$$$$$$$$$$",
"$$$$$$$$$$$$$$$$$$$$$$$$$$$$$$$$$$$$$$$$$$$$$$$$$$$$$$$$$$$$$$$$",
"$$$$$$$$$$$$$$$$$$$$$$$$$$$$$$$$$$$$$$$$$$$$$$$$$$$$$$$$$$$$$$$$",
"$$$$$$$$$$$$$$$$$$$$$$$$$$$$$$$$$$$$$$$$$$$$$$$$$$$$$$$$$$$$$$$$",
"$$$$$$$$$$$$$$$$$$$$$$$$$$$$$$$$$$$$$$$$$$$$$$$$$$$$$$$$$$$$$$$$",
"$$$$$$$$$$$$$$$$$$$$$$$$$$$$$$$$$$$$$$$$$$$$$$$$$$$$$$$$$$$$$$$$"
};
