/* XPM */
static char *_2c91ec1d92446fb81de1e3c0425c8f6Q4I1WeYqxKSk4VPD[] = {
/* columns rows colors chars-per-pixel */
"64 64 4 1 ",
"  c None",
". c #DA0000",
"X c #DB0000",
"o c #DC0000",
/* pixels */
"                                                                ",
"                                                                ",
"                                                                ",
"                                                                ",
"                                                                ",
"                                                                ",
"                                                                ",
"                                                                ",
"                                                                ",
"                                                                ",
"                                                                ",
"                                                                ",
"                                                                ",
"                                                                ",
"                                                                ",
"                                                                ",
"                               XXXXXXXXXXXXXXXX                 ",
"                            XXXXXXXXXXXXXXXXXXXXXX              ",
"                          XXXXXXXXXXXXXXXXXXXXXXXXXX            ",
"                        XXXXXXXXXXXXXXXXXXXXXXXXXXXXX           ",
"                       XXXXXXXXXXXXXXXXXXXXXXXXXXXXXXX          ",
"                      XXXXXXXXXXXXXXXXXXXXXXXXXXXXXXXX          ",
"                     XXXXXXXXXXXXXXXXXXXXXXXXXXXXXXXXXX         ",
"                     XXXXXXXXXXXXXXXXXXXXXXXXXXXXXXXXXX         ",
"                    XXXXXXXXXXXXXXXXXXXXXXXXXXXXXXXXXXX         ",
"                    XXXXXXXXXXXXXXXXXXXXXXXXXXXXXXXXXXXX        ",
"                    XXXXXXXXXXXXXXXXXXXXXXXXXXXXXXXXXXXX        ",
"                   XXXXXXXXXXXXXXXXXXXXXXXXXXXXXXXXXXXXX        ",
"                   XXXXXXXXXXXXXXXXXXXXXXXXXXXXXXXXXXXX         ",
"                   XXXXXXXXXXXXXXXXXXXXXXXXXXXXXXXXXXXX         ",
"                   XXXXXXXXXXXXXXXXXXXXXXXXXXXXXXXXXXXX         ",
"                   XXXXXXXXXXXXXXXXXXXXXXXXXXXXXXXXXXX          ",
"                   XXXXXXXXXXXXXXXXXXXXXXXXXXXXXXXXXXX          ",
"                   XXXXXXXXXXXXXXXXXXXXXXXXXXXXXXXXXXX          ",
"                   XXXXXXXXXXXXXXXXXXXXXXXXXXXXXXXXXX           ",
"                   XXXXXXXXXXXXXXXXXXXXXXXXXXXXXXXXXX           ",
"                    XXXXXXXXXXXXXXXXXXXXXXXXXXXXXXXX            ",
"                    XXXXXXXXXXXXXXXXXXXXXXXXXXXXXXXX            ",
"                    XXXXXXXXXXXXXXXXXXXXXXXXXXXXXXX             ",
"                     XXXXXXXXXXXXXXXXXXXXXXXXXXXXX              ",
"                     oXXXXXXXXXXXXXXXXXXXXXXXXXXX               ",
"                      XXXXXXXXXXXXXXXXXXXXXXXXX                 ",
"                       XXXXXXXXXXXXXXXXXXXXXXX                  ",
"                        XXXXXXXXXXXXXXXXXXX                     ",
"                          XXXXXXXXX                             ",
"                            XX                                  ",
"                                                                ",
"                                                                ",
"                                                                ",
"                                                                ",
"                                                                ",
"                                                                ",
"                                                                ",
"                                                                ",
"                                                                ",
"                                                                ",
"                                                                ",
"                                                                ",
"                                                                ",
"                                                                ",
"                                                                ",
"                                                                ",
"                                                                ",
"                                                                "
};
