/* XPM */
static char *_0ff89e8aa304dc6b18cb6ef82e2cad4yQMm9YxPOilaqWT7[] = {
/* columns rows colors chars-per-pixel */
"64 64 3 1 ",
"  c None",
". c #007F00",
"X c #008000",
/* pixels */
"                                                                ",
"                                                                ",
"                                                                ",
"                                                                ",
"                                                                ",
"                                                                ",
"                                                                ",
"                                                                ",
"                                                                ",
"                                                                ",
"                                                                ",
"                                                                ",
"                                                                ",
"                                                                ",
"                                                                ",
"                                                                ",
"                                                                ",
"                                                                ",
"                                                                ",
"                                                                ",
"                                                                ",
"                                                                ",
"                                                                ",
"                                                                ",
"                                                                ",
"                                                                ",
"                                                                ",
"                                                                ",
"                                         XXXX                   ",
"                                       XXXXXXXXX                ",
"                                     XXXXXXXXXXXXX              ",
"                                    XXXXXXXXXXXXXX              ",
"              XXXXXXXXXXXXX        XXXXXXXXXXXXXXXX             ",
"            XXXXXXXXXXXXXXXXXX   XXXXXXXXXXXXXXXXXXX            ",
"          XXXXXXXXXXXXXXXXXXXXX  XXXXXXXXXXXXXXXXXXXX           ",
"        XXXXXXXXXXXXXXXXXXXXXXXXXXXXXXXXXXXXXXXXXXXXXX          ",
"       XXXXXXXXXXXXXXXXXXXXXXXXXXXXXXXXXXXXXXXXXXXXXXX          ",
"      XXXXXXXXXXXXXXXXXXXXXXXXXXXXXXXXXXXXXXXXXXXXXXXXX         ",
"     XXXXXXXXXXXXXXXXXXXXXXXXXXXXXXXXXXXXXXXXXXXXXXXXXX         ",
"    XXXXXXXXXXXXXXXXXXXXXXXXXXXXXXXXXXXXXXXXXXXXXXXXXXX         ",
"   XXXXXXXXXXXXXXXXXXXXXXXXXXXXXXXXXXXXXXXXXXXXXXXXXXXXX        ",
"   XXXXXXXXXXXXXXXXXXXXXXXXXXXXXXXXXXXXXXXXXXXXXXXXXXXXX        ",
"   XXXXXXXXXXXXXXXXXXXXXXXXXXXXXXXXXXXXXXXXXXXXXXXXXXXXX        ",
"    XXXXXXXXXXXXXXXXXXXXXXXXXXXXXXXXXXXXXXXXXXXXXXXXXXXX        ",
"    .XXXXXXXXXXXXXXXXXXXXXXXXXXXXXXXXXXXXXXXXXXXXXXXXXX         ",
"    XXXXXXXXXXXXXXXXXXXXXXXXXXX.  .XXXXXXXXXXXXXXXXXXXX         ",
"     XXXXXXXXXXXXXXXXXXXXXXXXXX    .XXXXXXXXXXXXXXXXXX          ",
"      XXXXXXXXXXXXXXXXXXXXXXXXX     .XXXXXXXXXXXXXXXXX          ",
"       .XXXXXXXXXXXXXXXXXXXXXX       XXXXXXXXXXXXXXXX           ",
"        XXXXXXXXXXXXXXXXXXXXX         XXXXXXXXXXXXXX            ",
"          XXXXXXXXXXXXXXXXX              XXXXXXXXX              ",
"             X.XXXXXXXXXX                                       ",
"                                                                ",
"                                                                ",
"                                                                ",
"                                                                ",
"                                                                ",
"                                                                ",
"                                                                ",
"                                                                ",
"                                                                ",
"                                                                ",
"                                                                ",
"                                                                "
};
